<svg version="1.1" xmlns="http://www.w3.org/2000/svg" viewBox="0 0 1882.96875 224.64371744791788" width="3765.9375" height="449.28743489583576">
  <!-- svg-source:excalidraw -->
  
  <defs>
    <style class="style-fonts">
      @font-face {
        font-family: "Virgil";
        src: url("https://excalidraw.com/Virgil.woff2");
      }
      @font-face {
        font-family: "Cascadia";
        src: url("https://excalidraw.com/Cascadia.woff2");
      }
    </style>
  </defs>
  <rect x="0" y="0" width="1882.96875" height="224.64371744791788" fill="#ffffff"></rect><g stroke-linecap="round" transform="translate(10 32.82861328125182) rotate(0 227.59114583333303 70.126953125)"><path d="M32 0 M32 0 C177.27 0.35, 320.59 -1.72, 423.18 0 M32 0 C178.35 -1.61, 325.04 -0.93, 423.18 0 M423.18 0 C443.04 0.56, 455.89 10.74, 455.18 32 M423.18 0 C446.65 -1.78, 454.23 11.66, 455.18 32 M455.18 32 C455.8 60.58, 454.48 90.83, 455.18 108.25 M455.18 32 C454.87 60.55, 455.31 87.14, 455.18 108.25 M455.18 108.25 C456.82 131.56, 442.59 140.55, 423.18 140.25 M455.18 108.25 C457.27 128.71, 446.2 140.47, 423.18 140.25 M423.18 140.25 C291.88 138.29, 158 139.16, 32 140.25 M423.18 140.25 C318.04 138.91, 213.18 139.23, 32 140.25 M32 140.25 C11.62 138.56, 0.29 131.29, 0 108.25 M32 140.25 C12.95 142.5, -1.03 130.33, 0 108.25 M0 108.25 C-1.61 83.34, -0.4 55.95, 0 32 M0 108.25 C-0.25 83.46, -0.69 58.67, 0 32 M0 32 C0.3 12.31, 12.17 -1.55, 32 0 M0 32 C0.61 10.86, 12.91 -1.71, 32 0" stroke="#000000" stroke-width="1" fill="none"></path></g><g stroke-linecap="round" transform="translate(713.4830729166665 23.04345703125) rotate(0 190.51432291666663 72.08658854166697)"><path d="M32 0 M32 0 C117.52 1.04, 199.91 0.58, 349.03 0 M32 0 C153.75 -1.95, 276.49 -2.17, 349.03 0 M349.03 0 C369.4 -1.6, 382.89 10.28, 381.03 32 M349.03 0 C371.81 0.51, 380.49 10.74, 381.03 32 M381.03 32 C379.87 52.92, 382.48 74.76, 381.03 112.17 M381.03 32 C382.22 49.1, 382.18 68.53, 381.03 112.17 M381.03 112.17 C380.52 133.21, 368.96 144.2, 349.03 144.17 M381.03 112.17 C380.14 134.43, 369.4 142.34, 349.03 144.17 M349.03 144.17 C229.48 144.38, 111.83 145.04, 32 144.17 M349.03 144.17 C281.3 143.01, 214.03 143.35, 32 144.17 M32 144.17 C9.65 144.33, -0.69 134.97, 0 112.17 M32 144.17 C10.11 142.88, -0.09 133.38, 0 112.17 M0 112.17 C1.69 83.21, -1.71 53.78, 0 32 M0 112.17 C0.98 90.41, 0.18 69.29, 0 32 M0 32 C-1.64 9.47, 9.39 -1.52, 32 0 M0 32 C-1.81 10.71, 12.23 -2.24, 32 0" stroke="#000000" stroke-width="1" fill="none"></path></g><g stroke-linecap="round" transform="translate(1462.8385416666665 22.20361328125) rotate(0 205.06510416666674 74.83072916666697)"><path d="M32 0 M32 0 C157.28 1.39, 283.02 0.52, 378.13 0 M32 0 C125.52 -2.14, 220.73 -1.85, 378.13 0 M378.13 0 C398.35 -0.93, 411.08 9.26, 410.13 32 M378.13 0 C399.32 1.26, 409.72 11.07, 410.13 32 M410.13 32 C409.27 54.32, 410.08 79.86, 410.13 117.66 M410.13 32 C410.2 65.7, 411.54 98.35, 410.13 117.66 M410.13 117.66 C409.29 140.98, 400.6 148.15, 378.13 149.66 M410.13 117.66 C411.94 138.53, 399 149.15, 378.13 149.66 M378.13 149.66 C262.12 151.17, 145.21 149.08, 32 149.66 M378.13 149.66 C301.57 150.25, 223.8 149.21, 32 149.66 M32 149.66 C12.52 151.35, 0.49 140.73, 0 117.66 M32 149.66 C9.68 151.08, 1.32 137.72, 0 117.66 M0 117.66 C2.36 87.56, -0.24 55.53, 0 32 M0 117.66 C-1.05 93.27, -0.94 67.24, 0 32 M0 32 C0.52 11.39, 11.27 -0.82, 32 0 M0 32 C-0.08 8.96, 11.93 -0.22, 32 0" stroke="#000000" stroke-width="1" fill="none"></path></g><g transform="translate(37.85156249999977 78.86637369791788) rotate(0 202 23)"><text x="0" y="32" font-family="Virgil, Segoe UI Emoji" font-size="36px" fill="#000000" text-anchor="start" style="white-space: pre;" direction="ltr">User(client or browser)</text></g><g transform="translate(775.4492187499998 39.36116536458394) rotate(0 137.5 23)"><text x="0" y="32" font-family="Virgil, Segoe UI Emoji" font-size="36px" fill="#000000" text-anchor="start" style="white-space: pre;" direction="ltr">Proxy Contract</text></g><g transform="translate(791.6796874999998 104.67366536458394) rotate(0 142 23)"><text x="0" y="32" font-family="Virgil, Segoe UI Emoji" font-size="36px" fill="#000000" text-anchor="start" style="white-space: pre;" direction="ltr">(Storage Layer)</text></g><g stroke-linecap="round"><g transform="translate(1116.1783854166665 61.672837925601925) rotate(0 157.62600040622056 -0.7220272865606603)"><path d="M-0.58 -1.06 C51.88 -1.56, 263.16 -2.07, 315.83 -2.43 M1.32 0.99 C53.55 0.65, 262.85 -0.35, 315.07 -0.92" stroke="#000000" stroke-width="1" fill="none"></path></g><g transform="translate(1116.1783854166665 61.672837925601925) rotate(0 157.62600040622056 -0.7220272865606603)"><path d="M285.18 10.16 C297.88 5.52, 307.5 1.73, 316.71 -0.74 M287.72 9.58 C294.25 6.4, 301.42 3.12, 314.56 -1.69" stroke="#000000" stroke-width="1" fill="none"></path></g><g transform="translate(1116.1783854166665 61.672837925601925) rotate(0 157.62600040622056 -0.7220272865606603)"><path d="M285.03 -10.37 C297.88 -6.95, 307.55 -2.69, 316.71 -0.74 M287.57 -10.94 C294.26 -8.46, 301.48 -6.07, 314.56 -1.69" stroke="#000000" stroke-width="1" fill="none"></path></g></g><mask></mask><g transform="translate(1529.8046875 35.32470703125) rotate(0 132 23)"><text x="0" y="32" font-family="Virgil, Segoe UI Emoji" font-size="36px" fill="#000000" text-anchor="start" style="white-space: pre;" direction="ltr">Logic Contract</text></g><g transform="translate(1536.1718749999995 94.46533203125) rotate(0 115 23)"><text x="0" y="32" font-family="Virgil, Segoe UI Emoji" font-size="36px" fill="#000000" text-anchor="start" style="white-space: pre;" direction="ltr">(Logic Layer)</text></g><g transform="translate(655.3450520833333 180.64371744791788) rotate(0 279 17)"><text x="0" y="24" font-family="Virgil, Segoe UI Emoji" font-size="27.26475458559783px" fill="#000000" text-anchor="start" style="white-space: pre;" direction="ltr">(Storage Address of the Logic Contract)</text></g><g stroke-linecap="round"><g transform="translate(495.57291666666674 67.86197916666606) rotate(0 99.50755548622135 -1.8780149577796692)"><path d="M-0.07 0.5 C33.5 -0.06, 167.33 -3.53, 200.58 -4.26 M-1.56 -0.28 C31.97 -0.61, 166.6 -2.61, 199.91 -3" stroke="#000000" stroke-width="1" fill="none"></path></g><g transform="translate(495.57291666666674 67.86197916666606) rotate(0 99.50755548622135 -1.8780149577796692)"><path d="M172.7 8.51 C177.48 4.12, 184.54 1.31, 200.72 -1.92 M171.54 7.19 C179.7 5.39, 188.4 2.38, 200.81 -3.85" stroke="#000000" stroke-width="1" fill="none"></path></g><g transform="translate(495.57291666666674 67.86197916666606) rotate(0 99.50755548622135 -1.8780149577796692)"><path d="M172.42 -12.01 C177.12 -11.69, 184.24 -9.78, 200.72 -1.92 M171.26 -13.33 C179.52 -9.23, 188.3 -6.35, 200.81 -3.85" stroke="#000000" stroke-width="1" fill="none"></path></g></g><mask></mask><g transform="translate(472.09635416666674 12.87109375) rotate(0 120.5 23)"><text x="0" y="32" font-family="Virgil, Segoe UI Emoji" font-size="36px" fill="#000000" text-anchor="start" style="white-space: pre;" direction="ltr">method_call()</text></g><g stroke-linecap="round"><g transform="translate(686.0611979166665 125.96744791666606) rotate(0 -107.00703166710821 0.28796936901017034)"><path d="M-0.08 0.97 C-35.61 1.08, -178.32 -0.45, -213.93 -0.4 M-1.58 0.44 C-36.69 0.78, -176.85 0.94, -211.81 0.77" stroke="#000000" stroke-width="1" fill="none"></path></g><g transform="translate(686.0611979166665 125.96744791666606) rotate(0 -107.00703166710821 0.28796936901017034)"><path d="M-181.99 -11.33 C-191.56 -8.64, -195.48 -3.64, -211.02 1.74 M-184.44 -8.74 C-195.25 -5.32, -205.71 -1.49, -210.9 -0.01" stroke="#000000" stroke-width="1" fill="none"></path></g><g transform="translate(686.0611979166665 125.96744791666606) rotate(0 -107.00703166710821 0.28796936901017034)"><path d="M-182.01 9.19 C-191.39 7.01, -195.31 7.15, -211.02 1.74 M-184.46 11.78 C-195.44 7.03, -205.89 2.67, -210.9 -0.01" stroke="#000000" stroke-width="1" fill="none"></path></g></g><mask></mask><g transform="translate(486.9466145833335 138.97786458333394) rotate(0 99.5 23)"><text x="0" y="32" font-family="Virgil, Segoe UI Emoji" font-size="36px" fill="#000000" text-anchor="start" style="white-space: pre;" direction="ltr">returndata</text></g><g stroke-linecap="round"><g transform="translate(1430.944010416667 120.33593750000182) rotate(0 -156.86444481307342 -0.8944945055991411)"><path d="M0.27 1.03 C-52.06 0.66, -260.72 -2.12, -312.85 -2.82 M-1.04 0.53 C-53.67 0.41, -261.96 -0.91, -314 -1.35" stroke="#000000" stroke-width="1" fill="none"></path></g><g transform="translate(1430.944010416667 120.33593750000182) rotate(0 -156.86444481307342 -0.8944945055991411)"><path d="M-284.02 -12.06 C-297.2 -7.46, -309.01 -2.91, -312.22 -3.3 M-285.29 -11.32 C-295.62 -8.96, -305.6 -5.68, -314.91 -1.96" stroke="#000000" stroke-width="1" fill="none"></path></g><g transform="translate(1430.944010416667 120.33593750000182) rotate(0 -156.86444481307342 -0.8944945055991411)"><path d="M-284.17 8.46 C-297.18 4.92, -308.93 1.34, -312.22 -3.3 M-285.43 9.2 C-295.7 4.6, -305.64 0.91, -314.91 -1.96" stroke="#000000" stroke-width="1" fill="none"></path></g></g><mask></mask><g transform="translate(1142.4544270833333 10) rotate(0 120.49999999999989 23)"><text x="0" y="32" font-family="Virgil, Segoe UI Emoji" font-size="36px" fill="#000000" text-anchor="start" style="white-space: pre;" direction="ltr">method_call()</text></g><g transform="translate(1194.1210937499998 133.33333333333394) rotate(0 99.50000000000011 23)"><text x="0" y="32" font-family="Virgil, Segoe UI Emoji" font-size="36px" fill="#000000" text-anchor="start" style="white-space: pre;" direction="ltr">returndata</text></g></svg>