<svg version="1.1" xmlns="http://www.w3.org/2000/svg" viewBox="0 0 1579.270833333333 216.62630208333394" width="3158.541666666666" height="433.2526041666679">
  <!-- svg-source:excalidraw -->
  
  <defs>
    <style class="style-fonts">
      @font-face {
        font-family: "Virgil";
        src: url("https://excalidraw.com/Virgil.woff2");
      }
      @font-face {
        font-family: "Cascadia";
        src: url("https://excalidraw.com/Cascadia.woff2");
      }
    </style>
  </defs>
  <rect x="0" y="0" width="1579.270833333333" height="216.62630208333394" fill="#ffffff"></rect><g stroke-linecap="round" transform="translate(10 20.08463541666788) rotate(0 227.59114583333303 70.126953125)"><path d="M32 0 M32 0 C177.27 0.35, 320.59 -1.72, 423.18 0 M32 0 C178.35 -1.61, 325.04 -0.93, 423.18 0 M423.18 0 C443.04 0.56, 455.89 10.74, 455.18 32 M423.18 0 C446.65 -1.78, 454.23 11.66, 455.18 32 M455.18 32 C455.8 60.58, 454.48 90.83, 455.18 108.25 M455.18 32 C454.87 60.55, 455.31 87.14, 455.18 108.25 M455.18 108.25 C456.82 131.56, 442.59 140.55, 423.18 140.25 M455.18 108.25 C457.27 128.71, 446.2 140.47, 423.18 140.25 M423.18 140.25 C291.88 138.29, 158 139.16, 32 140.25 M423.18 140.25 C318.04 138.91, 213.18 139.23, 32 140.25 M32 140.25 C11.62 138.56, 0.29 131.29, 0 108.25 M32 140.25 C12.95 142.5, -1.03 130.33, 0 108.25 M0 108.25 C-1.61 83.34, -0.4 55.95, 0 32 M0 108.25 C-0.25 83.46, -0.69 58.67, 0 32 M0 32 C0.3 12.31, 12.17 -1.55, 32 0 M0 32 C0.61 10.86, 12.91 -1.71, 32 0" stroke="#000000" stroke-width="1" fill="none"></path></g><g stroke-linecap="round" transform="translate(581.8424479166665 15.02604166666606) rotate(0 190.51432291666663 72.08658854166697)"><path d="M32 0 M32 0 C117.52 1.04, 199.91 0.58, 349.03 0 M32 0 C153.75 -1.95, 276.49 -2.17, 349.03 0 M349.03 0 C369.4 -1.6, 382.89 10.28, 381.03 32 M349.03 0 C371.81 0.51, 380.49 10.74, 381.03 32 M381.03 32 C379.87 52.92, 382.48 74.76, 381.03 112.17 M381.03 32 C382.22 49.1, 382.18 68.53, 381.03 112.17 M381.03 112.17 C380.52 133.21, 368.96 144.2, 349.03 144.17 M381.03 112.17 C380.14 134.43, 369.4 142.34, 349.03 144.17 M349.03 144.17 C229.48 144.38, 111.83 145.04, 32 144.17 M349.03 144.17 C281.3 143.01, 214.03 143.35, 32 144.17 M32 144.17 C9.65 144.33, -0.69 134.97, 0 112.17 M32 144.17 C10.11 142.88, -0.09 133.38, 0 112.17 M0 112.17 C1.69 83.21, -1.71 53.78, 0 32 M0 112.17 C0.98 90.41, 0.18 69.29, 0 32 M0 32 C-1.64 9.47, 9.39 -1.52, 32 0 M0 32 C-1.81 10.71, 12.23 -2.24, 32 0" stroke="#000000" stroke-width="1" fill="none"></path></g><g stroke-linecap="round" transform="translate(1159.1406249999998 10) rotate(0 205.06510416666663 74.83072916666697)"><path d="M32 0 M32 0 C157.28 1.39, 283.02 0.52, 378.13 0 M32 0 C125.52 -2.14, 220.73 -1.85, 378.13 0 M378.13 0 C398.35 -0.93, 411.08 9.26, 410.13 32 M378.13 0 C399.32 1.26, 409.72 11.07, 410.13 32 M410.13 32 C409.27 54.32, 410.08 79.86, 410.13 117.66 M410.13 32 C410.2 65.7, 411.54 98.35, 410.13 117.66 M410.13 117.66 C409.29 140.98, 400.6 148.15, 378.13 149.66 M410.13 117.66 C411.94 138.53, 399 149.15, 378.13 149.66 M378.13 149.66 C262.12 151.17, 145.21 149.08, 32 149.66 M378.13 149.66 C301.57 150.25, 223.8 149.21, 32 149.66 M32 149.66 C12.52 151.35, 0.49 140.73, 0 117.66 M32 149.66 C9.68 151.08, 1.32 137.72, 0 117.66 M0 117.66 C2.36 87.56, -0.24 55.53, 0 32 M0 117.66 C-1.05 93.27, -0.94 67.24, 0 32 M0 32 C0.52 11.39, 11.27 -0.82, 32 0 M0 32 C-0.08 8.96, 11.93 -0.22, 32 0" stroke="#000000" stroke-width="1" fill="none"></path></g><g transform="translate(57.77343749999977 66.94270833333394) rotate(0 202 23)"><text x="0" y="32" font-family="Virgil, Segoe UI Emoji" font-size="36px" fill="#000000" text-anchor="start" style="white-space: pre;" direction="ltr">User(client or browser)</text></g><g stroke-linecap="round"><g transform="translate(483.5611979166665 96.81640625) rotate(0 46.98881976486177 0.052778800014493754)"><path d="M1.02 0.13 C16.58 -0.1, 78.68 -0.36, 93.88 -0.6 M0.09 -0.84 C15.53 -0.94, 78.29 0.86, 93.46 0.95" stroke="#000000" stroke-width="1" fill="none"></path></g><g transform="translate(483.5611979166665 96.81640625) rotate(0 46.98881976486177 0.052778800014493754)"><path d="M65.3 12.34 C74.84 5.98, 83.52 1.89, 91.8 -0.62 M65.15 10.97 C73.69 7.36, 84.2 4.8, 93.98 1.89" stroke="#000000" stroke-width="1" fill="none"></path></g><g transform="translate(483.5611979166665 96.81640625) rotate(0 46.98881976486177 0.052778800014493754)"><path d="M65.68 -8.18 C75.23 -7.46, 83.78 -4.46, 91.8 -0.62 M65.53 -9.55 C73.79 -6.46, 84.17 -2.33, 93.98 1.89" stroke="#000000" stroke-width="1" fill="none"></path></g></g><mask></mask><g transform="translate(643.8085937499998 31.34375) rotate(0 137.5 23)"><text x="0" y="32" font-family="Virgil, Segoe UI Emoji" font-size="36px" fill="#000000" text-anchor="start" style="white-space: pre;" direction="ltr">Proxy Contract</text></g><g transform="translate(660.0390624999998 96.65625) rotate(0 142 23)"><text x="0" y="32" font-family="Virgil, Segoe UI Emoji" font-size="36px" fill="#000000" text-anchor="start" style="white-space: pre;" direction="ltr">(Storage Layer)</text></g><g stroke-linecap="round"><g transform="translate(994.3554687499998 94.47265625) rotate(0 71.5973545728873 -0.7592502460975084)"><path d="M-0.58 -1.06 C23.2 -1.57, 119.78 -2.13, 143.77 -2.51 M1.32 0.99 C24.87 0.64, 119.47 -0.41, 143.01 -0.99" stroke="#000000" stroke-width="1" fill="none"></path></g><g transform="translate(994.3554687499998 94.47265625) rotate(0 71.5973545728873 -0.7592502460975084)"><path d="M113.23 10.35 C125.89 5.61, 135.46 1.72, 144.66 -0.82 M115.77 9.77 C122.26 6.51, 129.4 3.17, 142.5 -1.76" stroke="#000000" stroke-width="1" fill="none"></path></g><g transform="translate(994.3554687499998 94.47265625) rotate(0 71.5973545728873 -0.7592502460975084)"><path d="M112.88 -10.17 C125.76 -6.86, 135.47 -2.7, 144.66 -0.82 M115.42 -10.75 C122.14 -8.34, 129.37 -6.02, 142.5 -1.76" stroke="#000000" stroke-width="1" fill="none"></path></g></g><mask></mask><g transform="translate(1252.48046875 28.6484375) rotate(0 132 23)"><text x="0" y="32" font-family="Virgil, Segoe UI Emoji" font-size="36px" fill="#000000" text-anchor="start" style="white-space: pre;" direction="ltr">Logic Contract</text></g><g transform="translate(1279.1471354166665 83.6484375) rotate(0 115 23)"><text x="0" y="32" font-family="Virgil, Segoe UI Emoji" font-size="36px" fill="#000000" text-anchor="start" style="white-space: pre;" direction="ltr">(Logic Layer)</text></g><g transform="translate(523.7044270833333 172.62630208333394) rotate(0 279 17)"><text x="0" y="24" font-family="Virgil, Segoe UI Emoji" font-size="27.26475458559783px" fill="#000000" text-anchor="start" style="white-space: pre;" direction="ltr">(Storage Address of the Logic Contract)</text></g></svg>